<?xml version="1.0" encoding="utf-8"?>
<!-- Generator: Adobe Illustrator 16.0.0, SVG Export Plug-In . SVG Version: 6.00 Build 0)  -->
<!DOCTYPE svg PUBLIC "-//W3C//DTD SVG 1.1//EN" "http://www.w3.org/Graphics/SVG/1.1/DTD/svg11.dtd">
<svg version="1.1" id="Calque_1" xmlns="http://www.w3.org/2000/svg" xmlns:xlink="http://www.w3.org/1999/xlink" x="0px" y="0px"
	 width="155.905px" height="155.905px" viewBox="0 0 155.905 155.905" enable-background="new 0 0 155.905 155.905"
	 xml:space="preserve">
<rect x="4.201" y="4.2" fill="none" stroke="#000000" stroke-width="1.2" stroke-linejoin="round" width="147.504" height="147.505"/>
<path stroke="#000000" stroke-width="0.9" stroke-linecap="round" stroke-linejoin="round" d="M35.915,23.148H17.438v-0.564h18.476
	V23.148z M35.915,48.963H17.438v-0.532h18.476V48.963z M30.982,35.455h-8.628v-0.566h8.628V35.455z"/>
<path stroke="#000000" stroke-width="0.9" stroke-linecap="round" stroke-linejoin="round" d="M69.271,38.898l-1.272,3.762
	l-1.22,2.542l-2.579,2.523l-3.798,1.237h-8.937V22.584h8.937l3.798,1.27l2.579,2.525l1.22,2.543l1.272,3.76V38.898z M68.705,38.818
	v-6.073l-1.186-3.621L66.28,26.74l-2.354-2.402l-3.592-1.184h-8.318v25.254h8.318l3.592-1.184l2.354-2.401l1.239-2.384
	L68.705,38.818z"/>
<path stroke="#000000" stroke-width="0.9" stroke-linecap="round" stroke-linejoin="round" d="M104.156,22.951l-9.797,25.75h-0.584
	l-9.812-25.755l0.48-0.205l9.624,25.186l9.608-25.182L104.156,22.951z"/>
<path stroke="#000000" stroke-width="0.9" stroke-linecap="round" stroke-linejoin="round" d="M138.466,48.564l-0.498,0.188
	l-10.174-25.169l-10.277,25.169l-0.481-0.188l10.467-25.718h0.584L138.466,48.564z"/>
<path stroke="#000000" stroke-width="0.9" stroke-linecap="round" stroke-linejoin="round" d="M35.245,72.502l-1.272,2.558
	l-1.341,1.304l-3.798,1.269h-1.959l8.335,13.093l-0.498,0.258l-8.509-13.351h-8.215v13.245h-0.55V64.762h11.396l3.798,1.27
	l1.341,1.287l1.272,2.575V72.502z M34.678,72.35v-2.315l-1.187-2.352l-1.134-1.166l-3.592-1.185H17.988v11.736h10.776l3.592-1.202
	l1.134-1.149L34.678,72.35z"/>
<path stroke="#000000" stroke-width="0.9" stroke-linecap="round" stroke-linejoin="round" d="M69.239,81.077l-1.271,3.762
	l-1.22,2.541l-2.578,2.525l-3.799,1.235h-8.938V64.762h8.938l3.799,1.272l2.578,2.523l1.22,2.542l1.271,3.761V81.077z
	 M68.672,80.997v-6.074l-1.186-3.62l-1.239-2.385l-2.354-2.401l-3.592-1.185h-8.319v25.255h8.319l3.592-1.183l2.354-2.403
	l1.239-2.385L68.672,80.997z"/>
<path stroke="#000000" stroke-width="0.9" stroke-linecap="round" stroke-linejoin="round" d="M104.471,90.878h-0.566V66.173
	l-9.573,17.913L84.76,66.173v24.705h-0.568V65.024h0.602l9.538,17.872l9.538-17.872h0.602V90.878z"/>
<path stroke="#000000" stroke-width="0.9" stroke-linecap="round" stroke-linejoin="round" d="M138.466,81.077l-1.271,3.762
	l-1.238,2.541l-2.526,2.525l-2.578,1.235h-5.07l-2.56-1.235l-2.545-2.525l-1.221-2.541l-1.271-3.762V74.86l1.271-3.761l1.221-2.542
	l2.545-2.523l2.56-1.272h5.07l2.578,1.272l2.526,2.523l1.238,2.542l1.271,3.761V81.077z M137.898,80.997v-6.074l-1.201-3.62
	l-1.222-2.385l-2.404-2.401l-2.356-1.185h-4.776l-2.372,1.185l-2.389,2.401l-1.238,2.385l-1.187,3.62v6.074l1.187,3.619l1.238,2.385
	l2.389,2.403l2.372,1.183h4.776l2.356-1.183l2.404-2.403l1.222-2.385L137.898,80.997z"/>
<path stroke="#000000" stroke-width="0.9" stroke-linecap="round" stroke-linejoin="round" d="M17.438,106.942h11.396l3.798,1.264
	l1.34,1.281l1.272,2.563v2.598l-1.272,2.547l-1.34,1.3l-3.798,1.266h-1.977l8.352,13.041l-0.498,0.256l-8.508-13.246h-8.215v13.246
	h-0.55V106.942z M28.765,119.245l3.592-1.199l1.134-1.15l1.186-2.367v-2.316l-1.186-2.351l-1.134-1.167l-3.592-1.183H17.988v11.733
	H28.765z"/>
<path stroke="#000000" stroke-width="0.9" stroke-linecap="round" stroke-linejoin="round" d="M69.177,107.507h-8.354v25.551h-0.566
	v-25.551H51.92v-0.564h17.256V107.507z"/>
<path stroke="#000000" stroke-width="0.9" stroke-linecap="round" stroke-linejoin="round" d="M103.993,107.507H85.518v-0.564
	h18.476V107.507z M103.993,133.32H85.518v-0.533h18.476V133.32z M99.061,119.812h-8.629v-0.566h8.629V119.812z"/>
<path stroke="#000000" stroke-width="0.9" stroke-linecap="round" stroke-linejoin="round" d="M138.466,127.052l-1.236,2.508
	l-2.527,2.523l-2.577,1.237h-5.071l-2.56-1.237l-2.544-2.523l-1.221-2.542l-1.272-3.762v-6.218l1.272-3.759l1.221-2.543l2.544-2.525
	l2.56-1.269h5.071l2.577,1.269l2.527,2.525l1.236,2.508l-0.498,0.273l-1.219-2.42l-2.407-2.405l-2.355-1.184h-4.777l-2.372,1.184
	l-2.39,2.405l-1.236,2.386l-1.186,3.623v6.081l1.186,3.622l1.236,2.389l2.39,2.405l2.372,1.184h4.777l2.355-1.184l2.407-2.405
	l1.219-2.422L138.466,127.052z"/>
</svg>
